<svg version="1.2" xmlns="http://www.w3.org/2000/svg" viewBox="0 0 131 27" width="131" height="27">
	<title>New Project</title>
	<style>
		.s0 { fill: #454545 } 
		.s1 { fill: #000000 } 
	</style>
	<path id="poesíaviva" class="s0" aria-label="poesíaviva"  d="m7.6 6.7q1.9 0 3.5 0.9 1.5 0.9 2.4 2.4 0.8 1.6 0.8 3.4 0 1.9-0.8 3.5-0.9 1.5-2.4 2.4-1.6 0.8-3.5 0.8-1.7 0-3.1-0.7-1.3-0.7-2.1-2v7.5q0 0.3-0.2 0.5-0.2 0.2-0.6 0.2-0.3 0-0.5-0.2-0.2-0.2-0.2-0.5v-11.5-0.1q0.1-1.8 0.9-3.4 0.9-1.5 2.4-2.3 1.6-0.9 3.4-0.9zm0 12.1q1.5 0 2.7-0.7 1.2-0.7 1.9-1.9 0.7-1.2 0.7-2.8 0-1.5-0.7-2.7-0.7-1.2-1.9-1.9-1.2-0.7-2.7-0.7-1.5 0-2.7 0.7-1.2 0.7-1.9 1.9-0.6 1.2-0.6 2.7 0 1.6 0.6 2.8 0.7 1.2 1.9 1.9 1.2 0.7 2.7 0.7zm16.3 1.3q-1.9 0-3.4-0.8-1.5-0.9-2.4-2.4-0.9-1.6-0.9-3.5 0-1.8 0.9-3.4 0.9-1.5 2.4-2.4 1.5-0.9 3.4-0.9 1.9 0 3.5 0.9 1.5 0.9 2.4 2.4 0.8 1.6 0.8 3.4 0 1.9-0.8 3.5-0.9 1.5-2.4 2.4-1.6 0.8-3.5 0.8zm0-1.3q1.5 0 2.7-0.7 1.2-0.7 1.9-1.9 0.7-1.2 0.7-2.8 0-1.5-0.7-2.7-0.7-1.2-1.9-1.9-1.2-0.7-2.7-0.7-1.4 0-2.6 0.7-1.2 0.7-1.9 1.9-0.7 1.2-0.7 2.7 0 1.6 0.7 2.8 0.7 1.2 1.9 1.9 1.2 0.7 2.6 0.7zm15.8-12q1.7 0 3.1 0.8 1.4 0.8 2.2 2.3 0.7 1.4 0.7 3.3 0 0.3-0.2 0.5-0.1 0.2-0.5 0.2h-10q0.1 1.4 0.7 2.5 0.7 1.1 1.8 1.8 1.2 0.6 2.5 0.6 1 0 1.9-0.3 1-0.4 1.5-0.9 0.3-0.2 0.5-0.2 0.3 0 0.5 0.2 0.2 0.2 0.2 0.5 0 0.2-0.2 0.4-0.8 0.7-2 1.2-1.2 0.4-2.4 0.4-1.8 0-3.3-0.8-1.5-0.9-2.3-2.4-0.9-1.5-0.9-3.5 0-1.9 0.8-3.4 0.8-1.5 2.2-2.4 1.4-0.8 3.2-0.8zm0 1.3q-1.9 0-3.2 1.2-1.3 1.3-1.5 3.3h9.3q-0.1-2-1.4-3.3-1.3-1.2-3.2-1.2zm13.6 12q-1.4 0-2.7-0.4-1.3-0.5-2.2-1.5-0.1-0.2-0.1-0.5 0-0.3 0.3-0.5 0.1-0.2 0.4-0.2 0.3 0 0.5 0.3 1.2 1.5 3.9 1.5 1.9 0 2.8-0.7 0.9-0.7 0.9-1.7 0-1.9-3.7-2.4-2.3-0.4-3.5-1.3-1.2-1-1.2-2.3 0-1.7 1.3-2.7 1.3-1 3.3-1 3.1 0 4.6 2.2 0.2 0.2 0.2 0.4 0 0.3-0.4 0.5-0.3 0.1-0.4 0.1-0.3 0-0.6-0.3-1.2-1.5-3.4-1.5-1.5 0-2.3 0.6-0.9 0.6-0.9 1.6 0 0.9 0.8 1.5 0.9 0.6 2.8 0.9 2.5 0.3 3.7 1.3 1.1 1 1.1 2.4 0 1.2-0.7 2-0.7 0.8-1.9 1.3-1.2 0.4-2.6 0.4zm9.6-0.1q-0.3 0-0.5-0.2-0.2-0.2-0.2-0.5v-11.7q0-0.3 0.2-0.5 0.2-0.2 0.5-0.2 0.4 0 0.5 0.2 0.2 0.2 0.2 0.5v11.7q0 0.3-0.2 0.5-0.1 0.2-0.5 0.2zm-0.3-15.1q-0.4 0-0.6-0.2-0.2-0.2-0.2-0.5 0-0.3 0.2-0.5l2.9-2.9q0.3-0.3 0.6-0.3 0.3 0 0.5 0.3 0.2 0.2 0.2 0.5 0 0.3-0.2 0.5l-3 2.9q-0.2 0.2-0.4 0.2zm11.8 1.8q1.9 0 3.4 0.9 1.6 0.9 2.4 2.4 0.9 1.6 0.9 3.4v5.9q0 0.3-0.2 0.5-0.1 0.2-0.5 0.2-0.3 0-0.5-0.2-0.2-0.2-0.2-0.5v-1.9q-0.8 1.3-2.2 2-1.4 0.7-3.1 0.7-1.9 0-3.4-0.8-1.5-0.9-2.4-2.4-0.9-1.6-0.9-3.5 0-1.8 0.9-3.4 0.9-1.5 2.4-2.4 1.5-0.9 3.4-0.9zm0 12.1q1.5 0 2.7-0.7 1.2-0.7 1.9-1.9 0.7-1.2 0.7-2.8 0-1.5-0.7-2.7-0.7-1.2-1.9-1.9-1.2-0.7-2.7-0.7-1.4 0-2.6 0.7-1.2 0.7-1.9 1.9-0.7 1.2-0.7 2.7 0 1.6 0.7 2.8 0.7 1.2 1.9 1.9 1.2 0.7 2.6 0.7z"/>
	<path id="poesíaviva" class="s1" aria-label="poesíaviva"  d="m94.8 7q0.4 0.2 0.5 0.4 0.2 0.3 0.2 0.6 0 0.2-0.1 0.5l-5.1 10.7q-0.4 0.8-1.1 0.8-0.4 0-0.7-0.2-0.3-0.2-0.5-0.6l-5.1-10.7q-0.1-0.2-0.1-0.5 0-0.6 0.7-1 0.2-0.1 0.5-0.1 0.3 0 0.6 0.2 0.2 0.1 0.4 0.4l4.2 9 4.1-9q0.1-0.3 0.4-0.4 0.3-0.2 0.6-0.2 0.3 0 0.5 0.1zm4.6 13q-0.6 0-0.9-0.3-0.4-0.4-0.4-0.9v-10.7q0-0.6 0.4-0.9 0.3-0.3 0.9-0.3 0.5 0 0.8 0.3 0.4 0.3 0.4 0.9v10.7q0 0.5-0.4 0.9-0.3 0.3-0.8 0.3zm0-15.3q-0.7 0-1.2-0.4-0.4-0.5-0.4-1.1 0-0.7 0.4-1.2 0.5-0.4 1.2-0.4 0.6 0 1.1 0.4 0.4 0.5 0.4 1.2 0 0.6-0.4 1.1-0.5 0.4-1.1 0.4zm15.8 2.3q0.4 0.2 0.5 0.4 0.2 0.3 0.2 0.6 0 0.2-0.1 0.5l-5.1 10.7q-0.4 0.8-1.1 0.8-0.4 0-0.7-0.2-0.3-0.2-0.5-0.6l-5.1-10.7q-0.1-0.2-0.1-0.5 0-0.6 0.7-1 0.2-0.1 0.5-0.1 0.3 0 0.6 0.2 0.2 0.1 0.4 0.4l4.2 9 4.1-9q0.1-0.3 0.4-0.4 0.3-0.2 0.6-0.2 0.3 0 0.5 0.1zm8.6-0.2q1.8 0 3.3 0.9 1.5 0.8 2.4 2.4 0.9 1.5 0.9 3.3v5.4q0 0.5-0.4 0.9-0.3 0.3-0.9 0.3-0.5 0-0.9-0.3-0.3-0.4-0.3-0.9v-0.9q-0.8 1-2 1.6-1.2 0.6-2.6 0.6-1.7 0-3.2-0.9-1.4-0.8-2.2-2.3-0.8-1.6-0.8-3.5 0-1.8 0.9-3.3 0.9-1.6 2.4-2.4 1.5-0.9 3.4-0.9zm0 11.1q1.2 0 2.1-0.5 1-0.6 1.6-1.6 0.5-1.1 0.5-2.4 0-1.2-0.5-2.3-0.6-1-1.6-1.6-0.9-0.6-2.1-0.6-1.2 0-2.2 0.6-1 0.6-1.6 1.6-0.5 1.1-0.5 2.3 0 1.3 0.5 2.4 0.6 1 1.6 1.6 1 0.5 2.2 0.5z"/>
</svg>