<?xml version="1.0" encoding="utf-8"?>
<!-- Generator: Adobe Illustrator 15.1.0, SVG Export Plug-In . SVG Version: 6.00 Build 0)  -->
<!DOCTYPE svg PUBLIC "-//W3C//DTD SVG 1.1//EN" "http://www.w3.org/Graphics/SVG/1.1/DTD/svg11.dtd">
<svg version="1.1" id="Layer_1" xmlns="http://www.w3.org/2000/svg" xmlns:xlink="http://www.w3.org/1999/xlink" x="0px" y="0px"
	 width="482.858px" height="98.216px" viewBox="0 0 482.858 98.216" enable-background="new 0 0 482.858 98.216"
	 xml:space="preserve">
<g>
	<path fill="#231F20" d="M47.704,9.445c0-11.499,18.068-11.499,18.068,0v54.069c0,21.491-10.267,34.496-33.947,34.496
		c-11.636,0-21.354-3.148-29.842-14.1c-6.981-8.351,6.16-20.396,13.278-11.636c5.749,7.118,11.909,8.761,17.932,8.487
		c7.666-0.273,14.373-3.696,14.511-17.248V9.445z"/>
	<path fill="#231F20" d="M150.229,10.267c0-12.184,17.933-13.142,17.933,0v49.553c0,51.195-82.543,51.195-82.543,0V10.267
		c0-12.32,17.933-12.868,17.933,0v49.553c0,26.966,46.678,28.609,46.678,0V10.267z"/>
	<path fill="#231F20" d="M185.271,95.957c-4.38-2.464-7.118-7.392-4.38-13.142l39.286-76.793c3.696-7.255,13.552-7.528,16.975,0
		l38.602,76.793c5.612,10.678-10.951,19.165-15.879,8.487l-6.022-12.046H203.34l-5.886,12.046
		C195.264,95.957,190.199,96.915,185.271,95.957z M244.133,61.188l-15.469-33.811l-16.837,33.811H244.133z"/>
	<path fill="#231F20" d="M288.344,10.813c0-4.928,1.096-9.719,8.214-9.719c4.928,0,6.022,1.232,9.719,4.791l45.31,56.671V9.445
		c0-4.518,3.97-9.445,8.623-9.445c4.929,0,9.72,4.928,9.72,9.445v77.066c0,6.023-3.696,8.351-7.255,9.445
		c-4.791,0-7.118-1.095-11.088-4.791l-45.31-57.492v52.838c0,6.023-3.696,9.445-8.624,9.445s-9.309-3.422-9.309-9.445V10.813z"/>
	<path fill="#FF3333" d="M407.16,35.864v50.647c0,6.023-4.928,9.445-9.855,9.445c-4.381,0-8.214-3.422-8.214-9.445V9.445
		c0-7.118,6.023-9.445,8.214-9.445c3.97,0,6.296,2.327,8.623,4.928l30.115,40.655l31.21-42.161
		C471.771-2.19,482.858,0,482.858,9.445v77.066c0,6.023-3.833,9.445-8.213,9.445c-4.929,0-8.761-3.422-8.761-9.445V35.864
		L443.161,64.61c-4.928,6.022-11.088,6.022-15.605,0L407.16,35.864z"/>
</g>
</svg>
